<?xml version="1.0" encoding="UTF-8"?>
<!DOCTYPE svg PUBLIC "-//W3C//DTD SVG 1.1//EN" "http://www.w3.org/Graphics/SVG/1.1/DTD/svg11.dtd">
<svg xmlns="http://www.w3.org/2000/svg" version="1.1" width="500px" height="500px" style="shape-rendering:geometricPrecision; text-rendering:geometricPrecision; image-rendering:optimizeQuality; fill-rule:evenodd; clip-rule:evenodd" xmlns:xlink="http://www.w3.org/1999/xlink">
<g><path style="opacity:1" fill="#fdca33" d="M 250.5,-0.5 C 254.5,-0.5 258.5,-0.5 262.5,-0.5C 282.926,2.37811 301.259,10.2114 317.5,23C 320.447,25.4356 322.78,28.2689 324.5,31.5C 324.298,33.9892 324.798,36.3225 326,38.5C 326.414,38.0426 326.914,37.7093 327.5,37.5C 327.68,41.5199 329.346,44.6866 332.5,47C 332.265,47.8732 331.931,48.7065 331.5,49.5C 332.315,51.2759 333.482,51.9426 335,51.5C 335.878,54.257 336.878,56.9237 338,59.5C 338.555,80.649 338.055,101.649 336.5,122.5C 333.833,122.5 331.167,122.5 328.5,122.5C 328.065,119.843 327.065,117.509 325.5,115.5C 323.597,112.47 322.263,109.137 321.5,105.5C 320.714,95.2126 320.214,84.8792 320,74.5C 319.617,73.944 319.117,73.6107 318.5,73.5C 318.167,73.5 317.833,73.5 317.5,73.5C 316.624,68.9889 315.291,64.6555 313.5,60.5C 312.045,57.8181 310.711,55.1514 309.5,52.5C 308.127,52.6567 306.793,52.49 305.5,52C 304.167,51 304.167,50 305.5,49C 292.591,48.8234 279.758,48.3234 267,47.5C 266.517,48.448 266.351,49.448 266.5,50.5C 256.594,52.1584 246.594,52.825 236.5,52.5C 235.512,46.8612 233.679,41.5278 231,36.5C 229.635,26.5901 231.802,17.5901 237.5,9.5C 241.876,6.11166 246.209,2.77833 250.5,-0.5 Z"/></g>
<g><path style="opacity:0.004" fill="#fefffe" d="M 87.5,1.5 C 88.8333,2.16667 88.8333,2.16667 87.5,1.5 Z"/></g>
<g><path style="opacity:0.004" fill="#fefffe" d="M 457.5,2.5 C 458.833,3.16667 458.833,3.16667 457.5,2.5 Z"/></g>
<g><path style="opacity:0.004" fill="#fefffe" d="M 27.5,4.5 C 28.8333,5.16667 28.8333,5.16667 27.5,4.5 Z"/></g>
<g><path style="opacity:1" fill="#fdae1f" d="M 234.5,-0.5 C 239.833,-0.5 245.167,-0.5 250.5,-0.5C 246.209,2.77833 241.876,6.11166 237.5,9.5C 231.802,17.5901 229.635,26.5901 231,36.5C 233.679,41.5278 235.512,46.8612 236.5,52.5C 221.547,46.8137 206.88,47.3137 192.5,54C 190.004,55.331 188.004,57.1644 186.5,59.5C 185.883,59.6107 185.383,59.944 185,60.5C 184.427,54.5583 181.761,53.225 177,56.5C 175.521,55.1269 175.688,53.6269 177.5,52C 178.448,51.5172 179.448,51.3505 180.5,51.5C 180.36,45.4638 180.693,39.4638 181.5,33.5C 181.5,32.5 181.5,31.5 181.5,30.5C 189.641,15.8793 201.975,6.71263 218.5,3C 223.954,1.74505 229.287,0.578384 234.5,-0.5 Z"/></g>
<g><path style="opacity:0.004" fill="#fefffe" d="M 112.5,16.5 C 113.833,17.1667 113.833,17.1667 112.5,16.5 Z"/></g>
<g><path style="opacity:0.004" fill="#fefffe" d="M 145.5,25.5 C 146.833,26.1667 146.833,26.1667 145.5,25.5 Z"/></g>
<g><path style="opacity:0.004" fill="#fefffe" d="M 116.5,29.5 C 117.833,30.1667 117.833,30.1667 116.5,29.5 Z"/></g>
<g><path style="opacity:1" fill="#6a3e19" d="M 181.5,30.5 C 181.5,31.5 181.5,32.5 181.5,33.5C 180.833,34.5 180.167,35.5 179.5,36.5C 179.5,34.8333 179.5,33.1667 179.5,31.5C 180.167,31.1667 180.833,30.8333 181.5,30.5 Z"/></g>
<g><path style="opacity:0.004" fill="#fefffe" d="M 489.5,39.5 C 490.833,40.1667 490.833,40.1667 489.5,39.5 Z"/></g>
<g><path style="opacity:1" fill="#3d2635" d="M 179.5,31.5 C 179.5,33.1667 179.5,34.8333 179.5,36.5C 178.676,40.3123 178.176,44.3123 178,48.5C 172.31,51.6918 167.81,56.0251 164.5,61.5C 163.057,62.3351 162.057,63.6684 161.5,65.5C 160.604,64.4937 159.938,64.4937 159.5,65.5C 160.393,68.0841 160.726,70.7508 160.5,73.5C 160.5,73.8333 160.5,74.1667 160.5,74.5C 158.96,79.0645 158.293,83.8979 158.5,89C 159.133,99.8892 160.133,110.723 161.5,121.5C 159.922,122.298 158.256,122.798 156.5,123C 155.177,123.816 154.511,124.983 154.5,126.5C 154.5,126.833 154.5,127.167 154.5,127.5C 151.783,130.637 150.949,134.304 152,138.5C 155.765,147.881 158.765,157.548 161,167.5C 161.377,168.942 162.21,169.942 163.5,170.5C 165.677,174.952 169.344,176.618 174.5,175.5C 174.942,179.154 175.276,182.821 175.5,186.5C 174.993,191.316 175.993,195.65 178.5,199.5C 179.833,202.167 181.167,204.833 182.5,207.5C 185.81,218.106 191.143,227.44 198.5,235.5C 199.263,244.282 198.263,252.949 195.5,261.5C 193.896,262.287 193.229,263.62 193.5,265.5C 190.354,266.31 188.687,268.31 188.5,271.5C 187.07,271.421 185.736,271.754 184.5,272.5C 182.937,271.055 181.604,269.389 180.5,267.5C 179.354,268.145 178.354,268.978 177.5,270C 178.337,271.011 178.67,272.178 178.5,273.5C 183.5,274.003 183.167,274.336 177.5,274.5C 176.5,273.833 175.5,273.167 174.5,272.5C 169.684,271.35 164.684,271.184 159.5,272C 156.826,272.67 154.493,273.837 152.5,275.5C 148.203,278.129 144.537,281.463 141.5,285.5C 135.804,285.447 130.138,285.78 124.5,286.5C 119.42,287.213 114.42,288.213 109.5,289.5C 109.739,291.467 109.406,293.301 108.5,295C 103.796,296.011 99.1292,296.177 94.5,295.5C 88.8288,295.666 83.8288,297.5 79.5,301C 79.9574,301.414 80.2907,301.914 80.5,302.5C 79.1468,303.524 78.4802,304.857 78.5,306.5C 76.5975,308.628 74.9308,310.961 73.5,313.5C 60.322,317.197 53.9886,325.863 54.5,339.5C 54.1667,339.5 53.8333,339.5 53.5,339.5C 51.6535,341.03 50.6535,343.03 50.5,345.5C 48.5708,349.027 46.9041,352.693 45.5,356.5C 42.5201,362.106 40.5201,368.106 39.5,374.5C 9.31452,317.669 2.48118,258.002 19,195.5C 41.0893,122.074 87.256,69.9078 157.5,39C 164.608,35.7975 171.941,33.2975 179.5,31.5 Z"/></g>
<g><path style="opacity:1" fill="#3d2635" d="M 326.5,33.5 C 395.663,58.8279 444.496,105.495 473,173.5C 494.836,235.044 493.503,296.044 469,356.5C 465.726,363.386 462.226,370.053 458.5,376.5C 457.576,370.825 455.909,365.491 453.5,360.5C 452.17,353.518 449.504,347.185 445.5,341.5C 445.443,340.391 445.11,339.391 444.5,338.5C 444.971,332.037 443.137,326.371 439,321.5C 434.903,318.2 430.403,315.533 425.5,313.5C 416.929,300.798 404.929,295.298 389.5,297C 388.956,296.283 388.289,295.783 387.5,295.5C 385.131,291.805 381.797,289.305 377.5,288C 370.604,286.251 363.604,285.084 356.5,284.5C 353.026,279.683 348.693,276.017 343.5,273.5C 339.946,272.016 336.112,271.349 332,271.5C 329.31,271.503 326.81,271.836 324.5,272.5C 323.222,272.782 322.222,273.449 321.5,274.5C 315.347,275.416 311.181,273.083 309,267.5C 308.329,266.748 307.496,266.414 306.5,266.5C 306.047,264.435 305.047,262.768 303.5,261.5C 301.145,253.684 299.812,245.684 299.5,237.5C 313.912,219.334 322.246,198.668 324.5,175.5C 329.911,176.044 334.078,174.044 337,169.5C 338.95,164.69 340.116,159.69 340.5,154.5C 346.133,146.635 347.966,137.969 346,128.5C 344.624,127.295 343.458,125.962 342.5,124.5C 341.713,122.896 340.38,122.229 338.5,122.5C 340.005,111.585 340.671,100.585 340.5,89.5C 341.825,85.5549 342.492,81.2216 342.5,76.5C 342.492,71.7784 341.825,67.4451 340.5,63.5C 338.019,52.535 333.352,42.535 326.5,33.5 Z"/></g>
<g><path style="opacity:1" fill="#fbac6d" d="M 236.5,52.5 C 236.5,52.8333 236.5,53.1667 236.5,53.5C 233.502,56.667 230.669,60.0003 228,63.5C 227.846,67.0979 226.846,70.4313 225,73.5C 223.76,84.4424 223.093,95.4424 223,106.5C 222.302,107.691 221.469,108.691 220.5,109.5C 206.029,107.078 192.696,109.911 180.5,118C 170.275,126.179 166.275,136.679 168.5,149.5C 167.666,150.748 166.333,151.415 164.5,151.5C 162.452,151.328 160.452,150.995 158.5,150.5C 157.414,150.38 156.747,149.713 156.5,148.5C 155.915,143.886 154.582,139.553 152.5,135.5C 153.762,132.978 154.429,130.311 154.5,127.5C 154.5,127.167 154.5,126.833 154.5,126.5C 156.997,124.129 159.997,123.129 163.5,123.5C 165.948,124.473 168.615,124.806 171.5,124.5C 171.5,123.5 171.5,122.5 171.5,121.5C 174.664,115.941 176.997,109.941 178.5,103.5C 179.33,94.3423 179.83,85.009 180,75.5C 182.104,70.1812 184.271,64.8479 186.5,59.5C 188.004,57.1644 190.004,55.331 192.5,54C 206.88,47.3137 221.547,46.8137 236.5,52.5 Z"/></g>
<g><path style="opacity:0.004" fill="#fefffe" d="M 426.5,51.5 C 427.833,52.1667 427.833,52.1667 426.5,51.5 Z"/></g>
<g><path style="opacity:1" fill="#facb49" d="M 313.5,60.5 C 310.333,57.502 307,54.6686 303.5,52C 292.658,49.552 281.658,48.8853 270.5,50C 266.785,51.2952 263.118,52.4619 259.5,53.5C 253.5,54.8333 247.5,54.8333 241.5,53.5C 239.833,53.5 238.167,53.5 236.5,53.5C 236.5,53.1667 236.5,52.8333 236.5,52.5C 246.594,52.825 256.594,52.1584 266.5,50.5C 266.351,49.448 266.517,48.448 267,47.5C 279.758,48.3234 292.591,48.8234 305.5,49C 304.167,50 304.167,51 305.5,52C 306.793,52.49 308.127,52.6567 309.5,52.5C 310.711,55.1514 312.045,57.8181 313.5,60.5 Z"/></g>
<g><path style="opacity:1" fill="#f3ab2d" d="M 181.5,33.5 C 180.693,39.4638 180.36,45.4638 180.5,51.5C 179.448,51.3505 178.448,51.5172 177.5,52C 175.688,53.6269 175.521,55.1269 177,56.5C 181.761,53.225 184.427,54.5583 185,60.5C 185.383,59.944 185.883,59.6107 186.5,59.5C 184.271,64.8479 182.104,70.1812 180,75.5C 179.83,85.009 179.33,94.3423 178.5,103.5C 178.666,93.8276 178.5,84.1609 178,74.5C 177.056,73.737 176.556,72.737 176.5,71.5C 177.876,67.2612 179.543,63.2612 181.5,59.5C 179.278,59.178 177.444,59.8446 176,61.5C 175.316,60.2161 175.483,59.0495 176.5,58C 174.415,57.4712 172.582,57.9712 171,59.5C 170.5,59.3333 170,59.1667 169.5,59C 170.833,57.1598 170.666,56.6598 169,57.5C 167.272,61.9568 165.272,66.2901 163,70.5C 162.035,79.4766 161.535,88.4766 161.5,97.5C 160.48,89.6618 160.48,81.6618 161.5,73.5C 162.09,69.3967 163.09,65.3967 164.5,61.5C 167.81,56.0251 172.31,51.6918 178,48.5C 178.176,44.3123 178.676,40.3123 179.5,36.5C 180.167,35.5 180.833,34.5 181.5,33.5 Z"/></g>
<g><path style="opacity:1" fill="#fcd0ad" d="M 313.5,60.5 C 315.291,64.6555 316.624,68.9889 317.5,73.5C 318.07,83.9837 318.736,94.3171 319.5,104.5C 320.167,104.833 320.833,105.167 321.5,105.5C 322.263,109.137 323.597,112.47 325.5,115.5C 326.353,119.373 327.353,123.206 328.5,127C 327.906,127.464 327.239,127.631 326.5,127.5C 321.363,119.776 314.363,114.776 305.5,112.5C 303.524,110.989 301.191,110.156 298.5,110C 291.5,109.333 284.5,109.333 277.5,110C 273.532,111.038 269.865,112.538 266.5,114.5C 263.726,115.723 261.059,117.223 258.5,119C 252.167,122.333 245.833,122.333 239.5,119C 233.905,114.536 227.571,111.703 220.5,110.5C 220.5,110.167 220.5,109.833 220.5,109.5C 221.469,108.691 222.302,107.691 223,106.5C 223.093,95.4424 223.76,84.4424 225,73.5C 226.846,70.4313 227.846,67.0979 228,63.5C 230.669,60.0003 233.502,56.667 236.5,53.5C 238.167,53.5 239.833,53.5 241.5,53.5C 241.611,54.1174 241.944,54.6174 242.5,55C 247.5,55.6667 252.5,55.6667 257.5,55C 258.416,54.7216 259.082,54.2216 259.5,53.5C 263.118,52.4619 266.785,51.2952 270.5,50C 281.658,48.8853 292.658,49.552 303.5,52C 307,54.6686 310.333,57.502 313.5,60.5 Z"/></g>
<g><path style="opacity:1" fill="#fcce74" d="M 241.5,53.5 C 247.5,54.8333 253.5,54.8333 259.5,53.5C 259.082,54.2216 258.416,54.7216 257.5,55C 252.5,55.6667 247.5,55.6667 242.5,55C 241.944,54.6174 241.611,54.1174 241.5,53.5 Z"/></g>
<g><path style="opacity:0.004" fill="#fefffe" d="M 447.5,58.5 C 448.833,59.1667 448.833,59.1667 447.5,58.5 Z"/></g>
<g><path style="opacity:1" fill="#46241c" d="M 164.5,61.5 C 163.09,65.3967 162.09,69.3967 161.5,73.5C 161.167,73.5 160.833,73.5 160.5,73.5C 160.726,70.7508 160.393,68.0841 159.5,65.5C 159.938,64.4937 160.604,64.4937 161.5,65.5C 162.057,63.6684 163.057,62.3351 164.5,61.5 Z"/></g>
<g><path style="opacity:1" fill="#482e1d" d="M 340.5,63.5 C 341.825,67.4451 342.492,71.7784 342.5,76.5C 342.492,81.2216 341.825,85.5549 340.5,89.5C 340.5,80.8333 340.5,72.1667 340.5,63.5 Z"/></g>
<g><path style="opacity:0.004" fill="#fefffe" d="M 416.5,71.5 C 417.833,72.1667 417.833,72.1667 416.5,71.5 Z"/></g>
<g><path style="opacity:0.004" fill="#fefffe" d="M 406.5,72.5 C 407.833,73.1667 407.833,73.1667 406.5,72.5 Z"/></g>
<g><path style="opacity:1" fill="#fdd18f" d="M 317.5,73.5 C 317.833,73.5 318.167,73.5 318.5,73.5C 319.452,83.7815 319.786,94.1148 319.5,104.5C 318.736,94.3171 318.07,83.9837 317.5,73.5 Z"/></g>
<g><path style="opacity:1" fill="#fbca56" d="M 318.5,73.5 C 319.117,73.6107 319.617,73.944 320,74.5C 320.214,84.8792 320.714,95.2126 321.5,105.5C 320.833,105.167 320.167,104.833 319.5,104.5C 319.786,94.1148 319.452,83.7815 318.5,73.5 Z"/></g>
<g><path style="opacity:1" fill="#b28135" d="M 160.5,73.5 C 160.833,73.5 161.167,73.5 161.5,73.5C 160.48,81.6618 160.48,89.6618 161.5,97.5C 161.5,100.5 161.5,103.5 161.5,106.5C 159.255,96.0367 158.922,85.3701 160.5,74.5C 160.5,74.1667 160.5,73.8333 160.5,73.5 Z"/></g>
<g><path style="opacity:1" fill="#fdae1e" d="M 178.5,103.5 C 176.997,109.941 174.664,115.941 171.5,121.5C 169.544,123.148 167.211,123.815 164.5,123.5C 163.251,114.822 162.251,106.155 161.5,97.5C 161.535,88.4766 162.035,79.4766 163,70.5C 165.272,66.2901 167.272,61.9568 169,57.5C 170.666,56.6598 170.833,57.1598 169.5,59C 170,59.1667 170.5,59.3333 171,59.5C 172.582,57.9712 174.415,57.4712 176.5,58C 175.483,59.0495 175.316,60.2161 176,61.5C 177.444,59.8446 179.278,59.178 181.5,59.5C 179.543,63.2612 177.876,67.2612 176.5,71.5C 176.556,72.737 177.056,73.737 178,74.5C 178.5,84.1609 178.666,93.8276 178.5,103.5 Z"/></g>
<g><path style="opacity:1" fill="#ebbf4a" d="M 324.5,31.5 C 325.5,31.8333 326.167,32.5 326.5,33.5C 333.352,42.535 338.019,52.535 340.5,63.5C 340.5,72.1667 340.5,80.8333 340.5,89.5C 339.566,90.5676 339.232,91.901 339.5,93.5C 338.194,98.6161 337.527,103.949 337.5,109.5C 337.5,114.167 337.5,118.833 337.5,123.5C 334.934,123.344 332.434,123.678 330,124.5C 328.97,124.164 328.47,123.497 328.5,122.5C 331.167,122.5 333.833,122.5 336.5,122.5C 338.055,101.649 338.555,80.649 338,59.5C 336.878,56.9237 335.878,54.257 335,51.5C 333.482,51.9426 332.315,51.2759 331.5,49.5C 331.931,48.7065 332.265,47.8732 332.5,47C 329.346,44.6866 327.68,41.5199 327.5,37.5C 326.914,37.7093 326.414,38.0426 326,38.5C 324.798,36.3225 324.298,33.9892 324.5,31.5 Z"/></g>
<g><path style="opacity:0.004" fill="#fefffe" d="M 49.5,99.5 C 50.8333,100.167 50.8333,100.167 49.5,99.5 Z"/></g>
<g><path style="opacity:0.004" fill="#fefffe" d="M 438.5,107.5 C 439.833,108.167 439.833,108.167 438.5,107.5 Z"/></g>
<g><path style="opacity:1" fill="#835f2b" d="M 339.5,93.5 C 339.624,99.0687 338.957,104.402 337.5,109.5C 337.527,103.949 338.194,98.6161 339.5,93.5 Z"/></g>
<g><path style="opacity:1" fill="#de5358" d="M 305.5,112.5 C 296.586,110.671 287.586,110.171 278.5,111C 274.518,112.541 270.518,113.708 266.5,114.5C 269.865,112.538 273.532,111.038 277.5,110C 284.5,109.333 291.5,109.333 298.5,110C 301.191,110.156 303.524,110.989 305.5,112.5 Z"/></g>
<g><path style="opacity:1" fill="#492a1f" d="M 340.5,89.5 C 340.671,100.585 340.005,111.585 338.5,122.5C 340.38,122.229 341.713,122.896 342.5,124.5C 340.883,123.962 339.216,123.629 337.5,123.5C 337.5,118.833 337.5,114.167 337.5,109.5C 338.957,104.402 339.624,99.0687 339.5,93.5C 339.232,91.901 339.566,90.5676 340.5,89.5 Z"/></g>
<g><path style="opacity:1" fill="#4b281b" d="M 160.5,74.5 C 158.922,85.3701 159.255,96.0367 161.5,106.5C 161.623,112.238 162.29,117.904 163.5,123.5C 159.997,123.129 156.997,124.129 154.5,126.5C 154.511,124.983 155.177,123.816 156.5,123C 158.256,122.798 159.922,122.298 161.5,121.5C 160.133,110.723 159.133,99.8892 158.5,89C 158.293,83.8979 158.96,79.0645 160.5,74.5 Z"/></g>
<g><path style="opacity:1" fill="#eaa841" d="M 161.5,97.5 C 162.251,106.155 163.251,114.822 164.5,123.5C 167.211,123.815 169.544,123.148 171.5,121.5C 171.5,122.5 171.5,123.5 171.5,124.5C 168.615,124.806 165.948,124.473 163.5,123.5C 162.29,117.904 161.623,112.238 161.5,106.5C 161.5,103.5 161.5,100.5 161.5,97.5 Z"/></g>
<g><path style="opacity:0.004" fill="#fefffe" d="M 50.5,122.5 C 51.8333,123.167 51.8333,123.167 50.5,122.5 Z"/></g>
<g><path style="opacity:1" fill="#df213e" d="M 220.5,110.5 C 227.571,111.703 233.905,114.536 239.5,119C 245.833,122.333 252.167,122.333 258.5,119C 261.059,117.223 263.726,115.723 266.5,114.5C 270.518,113.708 274.518,112.541 278.5,111C 287.586,110.171 296.586,110.671 305.5,112.5C 314.363,114.776 321.363,119.776 326.5,127.5C 330.7,133.627 332.033,140.294 330.5,147.5C 329.259,152.648 326.926,157.315 323.5,161.5C 307.646,175.304 289.646,178.804 269.5,172C 265.167,169.667 260.833,167.333 256.5,165C 252.259,163.543 247.926,163.209 243.5,164C 236.065,168.886 228.065,172.386 219.5,174.5C 210.444,176.017 201.444,175.517 192.5,173C 190.273,172.059 188.273,170.892 186.5,169.5C 191.888,170.347 197.221,171.513 202.5,173C 207.5,173.667 212.5,173.667 217.5,173C 213.419,167.851 212.419,162.018 214.5,155.5C 219.12,154.67 223.787,153.837 228.5,153C 230.043,151.261 231.71,149.761 233.5,148.5C 234.458,147.038 235.624,145.705 237,144.5C 236.479,138.962 233.313,135.462 227.5,134C 217.109,131.9 206.775,132.067 196.5,134.5C 197.348,132.907 198.681,131.74 200.5,131C 205.489,130.501 210.489,130.334 215.5,130.5C 212.603,124.218 213.103,118.218 217,112.5C 218.113,111.695 219.279,111.028 220.5,110.5 Z"/></g>
<g><path style="opacity:0.004" fill="#fefffe" d="M 474.5,126.5 C 475.833,127.167 475.833,127.167 474.5,126.5 Z"/></g>
<g><path style="opacity:1" fill="#fcac6e" d="M 325.5,115.5 C 327.065,117.509 328.065,119.843 328.5,122.5C 328.47,123.497 328.97,124.164 330,124.5C 332.434,123.678 334.934,123.344 337.5,123.5C 340.298,124.887 342.798,126.887 345,129.5C 345.667,132.5 345.667,135.5 345,138.5C 343.534,142.029 342.534,145.695 342,149.5C 341.617,150.056 341.117,150.389 340.5,150.5C 339.006,149.601 337.506,149.935 336,151.5C 334.667,150.167 333.333,150.167 332,151.5C 331.209,150.255 330.709,148.922 330.5,147.5C 332.033,140.294 330.7,133.627 326.5,127.5C 327.239,127.631 327.906,127.464 328.5,127C 327.353,123.206 326.353,119.373 325.5,115.5 Z"/></g>
<g><path style="opacity:1" fill="#d43f47" d="M 307.5,147.5 C 311.219,141.334 309.553,137.167 302.5,135C 291.182,130.652 279.849,130.486 268.5,134.5C 268.369,133.624 268.702,132.957 269.5,132.5C 282.518,129.207 295.185,130.207 307.5,135.5C 308.167,136.833 309.167,137.833 310.5,138.5C 312.495,142.711 311.495,145.711 307.5,147.5 Z"/></g>
<g><path style="opacity:1" fill="#fccfae" d="M 233.5,148.5 C 219.603,154.087 205.937,153.754 192.5,147.5C 188.136,142.652 188.803,138.652 194.5,135.5C 195.492,135.672 196.158,135.338 196.5,134.5C 206.775,132.067 217.109,131.9 227.5,134C 233.313,135.462 236.479,138.962 237,144.5C 235.624,145.705 234.458,147.038 233.5,148.5 Z"/></g>
<g><path style="opacity:1" fill="#fcceae" d="M 307.5,147.5 C 293.056,154.003 278.723,154.003 264.5,147.5C 262.221,145.277 261.388,142.611 262,139.5C 264.287,137.946 266.454,136.279 268.5,134.5C 279.849,130.486 291.182,130.652 302.5,135C 309.553,137.167 311.219,141.334 307.5,147.5 Z"/></g>
<g><path style="opacity:1" fill="#d5966c" d="M 337.5,123.5 C 339.216,123.629 340.883,123.962 342.5,124.5C 343.458,125.962 344.624,127.295 346,128.5C 347.966,137.969 346.133,146.635 340.5,154.5C 340.5,153.167 340.5,151.833 340.5,150.5C 341.117,150.389 341.617,150.056 342,149.5C 342.534,145.695 343.534,142.029 345,138.5C 345.667,135.5 345.667,132.5 345,129.5C 342.798,126.887 340.298,124.887 337.5,123.5 Z"/></g>
<g><path style="opacity:1" fill="#d20a32" d="M 220.5,109.5 C 220.5,109.833 220.5,110.167 220.5,110.5C 219.279,111.028 218.113,111.695 217,112.5C 213.103,118.218 212.603,124.218 215.5,130.5C 210.489,130.334 205.489,130.501 200.5,131C 198.681,131.74 197.348,132.907 196.5,134.5C 196.158,135.338 195.492,135.672 194.5,135.5C 191.762,134.965 189.928,135.965 189,138.5C 187.505,143.569 188.672,147.736 192.5,151C 196.701,152.08 200.535,153.913 204,156.5C 207.588,156.35 211.088,156.016 214.5,155.5C 212.419,162.018 213.419,167.851 217.5,173C 212.5,173.667 207.5,173.667 202.5,173C 197.221,171.513 191.888,170.347 186.5,169.5C 181.934,167.269 177.934,164.269 174.5,160.5C 172.216,156.927 170.216,153.26 168.5,149.5C 166.275,136.679 170.275,126.179 180.5,118C 192.696,109.911 206.029,107.078 220.5,109.5 Z"/></g>
<g><path style="opacity:1" fill="#d73f49" d="M 264.5,147.5 C 278.723,154.003 293.056,154.003 307.5,147.5C 307.631,148.239 307.464,148.906 307,149.5C 293.425,155.944 279.592,156.111 265.5,150C 264.748,149.329 264.414,148.496 264.5,147.5 Z"/></g>
<g><path style="opacity:1" fill="#db9267" d="M 154.5,127.5 C 154.429,130.311 153.762,132.978 152.5,135.5C 154.582,139.553 155.915,143.886 156.5,148.5C 156.747,149.713 157.414,150.38 158.5,150.5C 160.036,157.175 161.703,163.842 163.5,170.5C 162.21,169.942 161.377,168.942 161,167.5C 158.765,157.548 155.765,147.881 152,138.5C 150.949,134.304 151.783,130.637 154.5,127.5 Z"/></g>
<g><path style="opacity:1" fill="#d22a3b" d="M 194.5,135.5 C 188.803,138.652 188.136,142.652 192.5,147.5C 205.937,153.754 219.603,154.087 233.5,148.5C 231.71,149.761 230.043,151.261 228.5,153C 223.787,153.837 219.12,154.67 214.5,155.5C 211.088,156.016 207.588,156.35 204,156.5C 200.535,153.913 196.701,152.08 192.5,151C 188.672,147.736 187.505,143.569 189,138.5C 189.928,135.965 191.762,134.965 194.5,135.5 Z"/></g>
<g><path style="opacity:1" fill="#f99a60" d="M 330.5,147.5 C 330.709,148.922 331.209,150.255 332,151.5C 333.333,150.167 334.667,150.167 336,151.5C 337.506,149.935 339.006,149.601 340.5,150.5C 340.5,151.833 340.5,153.167 340.5,154.5C 340.116,159.69 338.95,164.69 337,169.5C 334.078,174.044 329.911,176.044 324.5,175.5C 324.819,170.637 324.486,165.97 323.5,161.5C 326.926,157.315 329.259,152.648 330.5,147.5 Z"/></g>
<g><path style="opacity:1" fill="#fbd0ad" d="M 323.5,161.5 C 324.486,165.97 324.819,170.637 324.5,175.5C 322.246,198.668 313.912,219.334 299.5,237.5C 293.323,243.841 286.656,249.674 279.5,255C 276.752,256.079 274.085,257.246 271.5,258.5C 268.721,257.611 266.055,256.444 263.5,255C 255.649,249.312 248.649,242.812 242.5,235.5C 237.284,227.695 232.284,219.695 227.5,211.5C 223.573,200.212 220.907,188.545 219.5,176.5C 219.5,175.833 219.5,175.167 219.5,174.5C 228.065,172.386 236.065,168.886 243.5,164C 247.926,163.209 252.259,163.543 256.5,165C 260.833,167.333 265.167,169.667 269.5,172C 289.646,178.804 307.646,175.304 323.5,161.5 Z"/></g>
<g><path style="opacity:1" fill="#fa985c" d="M 168.5,149.5 C 170.216,153.26 172.216,156.927 174.5,160.5C 173.871,165.318 173.871,170.318 174.5,175.5C 169.344,176.618 165.677,174.952 163.5,170.5C 161.703,163.842 160.036,157.175 158.5,150.5C 160.452,150.995 162.452,151.328 164.5,151.5C 166.333,151.415 167.666,150.748 168.5,149.5 Z"/></g>
<g><path style="opacity:0.004" fill="#fefffe" d="M 497.5,169.5 C 498.833,170.167 498.833,170.167 497.5,169.5 Z"/></g>
<g><path style="opacity:1" fill="#fbac6d" d="M 174.5,160.5 C 177.934,164.269 181.934,167.269 186.5,169.5C 188.273,170.892 190.273,172.059 192.5,173C 201.444,175.517 210.444,176.017 219.5,174.5C 219.5,175.167 219.5,175.833 219.5,176.5C 218.844,177.622 218.511,178.955 218.5,180.5C 219.11,185.822 219.61,191.156 220,196.5C 221.917,199.915 223.25,203.581 224,207.5C 224.949,209.093 226.115,210.426 227.5,211.5C 232.284,219.695 237.284,227.695 242.5,235.5C 242.307,238.475 243.307,240.975 245.5,243C 245.167,243.333 244.833,243.667 244.5,244C 248.283,244.554 250.95,246.554 252.5,250C 257.774,252.944 262.774,256.277 267.5,260C 273.71,261.063 278.71,259.063 282.5,254C 284.74,253.023 287.073,252.523 289.5,252.5C 290.046,248.742 292.046,246.075 295.5,244.5C 296.098,243.205 296.598,241.872 297,240.5C 298.215,245.051 298.881,249.718 299,254.5C 299.45,256.519 300.283,258.352 301.5,260C 300.027,260.71 299.36,261.876 299.5,263.5C 298.167,263.5 296.833,263.5 295.5,263.5C 295.5,264.833 295.5,266.167 295.5,267.5C 287.852,274.826 278.852,279.826 268.5,282.5C 260.692,284.157 252.692,284.824 244.5,284.5C 245.966,277.574 246.966,270.574 247.5,263.5C 239.627,262.878 231.961,261.211 224.5,258.5C 219.309,254.41 213.975,250.577 208.5,247C 205.221,242.904 201.888,239.07 198.5,235.5C 191.143,227.44 185.81,218.106 182.5,207.5C 182.662,205.473 182.495,203.473 182,201.5C 179.268,198.537 179.101,195.537 181.5,192.5C 178.416,187.067 176.083,181.401 174.5,175.5C 173.871,170.318 173.871,165.318 174.5,160.5 Z"/></g>
<g><path style="opacity:1" fill="#f2ad7c" d="M 174.5,175.5 C 176.083,181.401 178.416,187.067 181.5,192.5C 179.101,195.537 179.268,198.537 182,201.5C 182.495,203.473 182.662,205.473 182.5,207.5C 181.167,204.833 179.833,202.167 178.5,199.5C 177.943,194.948 176.943,190.615 175.5,186.5C 175.276,182.821 174.942,179.154 174.5,175.5 Z"/></g>
<g><path style="opacity:1" fill="#633e35" d="M 175.5,186.5 C 176.943,190.615 177.943,194.948 178.5,199.5C 175.993,195.65 174.993,191.316 175.5,186.5 Z"/></g>
<g><path style="opacity:1" fill="#f6b580" d="M 219.5,176.5 C 220.907,188.545 223.573,200.212 227.5,211.5C 226.115,210.426 224.949,209.093 224,207.5C 223.25,203.581 221.917,199.915 220,196.5C 219.61,191.156 219.11,185.822 218.5,180.5C 218.511,178.955 218.844,177.622 219.5,176.5 Z"/></g>
<g><path style="opacity:0.004" fill="#fefffe" d="M 0.5,216.5 C 1.83333,217.167 1.83333,217.167 0.5,216.5 Z"/></g>
<g><path style="opacity:1" fill="#fb985d" d="M 198.5,235.5 C 201.888,239.07 205.221,242.904 208.5,247C 213.975,250.577 219.309,254.41 224.5,258.5C 231.961,261.211 239.627,262.878 247.5,263.5C 246.966,270.574 245.966,277.574 244.5,284.5C 252.692,284.824 260.692,284.157 268.5,282.5C 266.438,283.776 264.104,284.61 261.5,285C 255.175,285.5 248.842,285.666 242.5,285.5C 223.877,283.023 208.211,275.023 195.5,261.5C 198.263,252.949 199.263,244.282 198.5,235.5 Z"/></g>
<g><path style="opacity:1" fill="#f3ac77" d="M 242.5,235.5 C 248.649,242.812 255.649,249.312 263.5,255C 266.055,256.444 268.721,257.611 271.5,258.5C 274.085,257.246 276.752,256.079 279.5,255C 286.656,249.674 293.323,243.841 299.5,237.5C 299.812,245.684 301.145,253.684 303.5,261.5C 303.5,261.833 303.5,262.167 303.5,262.5C 302.833,262.5 302.5,262.833 302.5,263.5C 300.004,264.58 297.67,265.914 295.5,267.5C 295.5,266.167 295.5,264.833 295.5,263.5C 296.833,263.5 298.167,263.5 299.5,263.5C 299.36,261.876 300.027,260.71 301.5,260C 300.283,258.352 299.45,256.519 299,254.5C 298.881,249.718 298.215,245.051 297,240.5C 296.598,241.872 296.098,243.205 295.5,244.5C 292.046,246.075 290.046,248.742 289.5,252.5C 287.073,252.523 284.74,253.023 282.5,254C 278.71,259.063 273.71,261.063 267.5,260C 262.774,256.277 257.774,252.944 252.5,250C 250.95,246.554 248.283,244.554 244.5,244C 244.833,243.667 245.167,243.333 245.5,243C 243.307,240.975 242.307,238.475 242.5,235.5 Z"/></g>
<g><path style="opacity:1" fill="#91253b" d="M 303.5,261.5 C 305.047,262.768 306.047,264.435 306.5,266.5C 306.5,266.833 306.5,267.167 306.5,267.5C 304.273,266.599 303.273,264.933 303.5,262.5C 303.5,262.167 303.5,261.833 303.5,261.5 Z"/></g>
<g><path style="opacity:1" fill="#4f2234" d="M 193.5,265.5 C 192.633,270.359 189.966,273.692 185.5,275.5C 182.833,275.5 180.167,275.5 177.5,275.5C 177.5,275.167 177.5,274.833 177.5,274.5C 183.167,274.336 183.5,274.003 178.5,273.5C 178.67,272.178 178.337,271.011 177.5,270C 178.354,268.978 179.354,268.145 180.5,267.5C 181.604,269.389 182.937,271.055 184.5,272.5C 185.736,271.754 187.07,271.421 188.5,271.5C 188.687,268.31 190.354,266.31 193.5,265.5 Z"/></g>
<g><path style="opacity:1" fill="#c52643" d="M 303.5,262.5 C 303.273,264.933 304.273,266.599 306.5,267.5C 308.167,271.167 310.833,273.833 314.5,275.5C 313.5,275.5 312.5,275.5 311.5,275.5C 309.852,274.223 308.018,273.223 306,272.5C 305.01,269.374 303.844,266.374 302.5,263.5C 302.5,262.833 302.833,262.5 303.5,262.5 Z"/></g>
<g><path style="opacity:1" fill="#581c2a" d="M 306.5,267.5 C 306.5,267.167 306.5,266.833 306.5,266.5C 307.496,266.414 308.329,266.748 309,267.5C 311.181,273.083 315.347,275.416 321.5,274.5C 321.5,275.167 321.5,275.833 321.5,276.5C 319.565,275.85 317.565,275.517 315.5,275.5C 315.167,275.5 314.833,275.5 314.5,275.5C 310.833,273.833 308.167,271.167 306.5,267.5 Z"/></g>
<g><path style="opacity:1" fill="#938479" d="M 324.5,272.5 C 326.81,271.836 329.31,271.503 332,271.5C 336.112,271.349 339.946,272.016 343.5,273.5C 337.196,272.74 330.863,272.407 324.5,272.5 Z"/></g>
<g><path style="opacity:1" fill="#d20832" d="M 195.5,261.5 C 208.211,275.023 223.877,283.023 242.5,285.5C 240.914,292.463 237.914,298.63 233.5,304C 229.567,305.626 225.567,305.626 221.5,304C 214.92,300.426 208.587,296.426 202.5,292C 197.318,287.317 192.652,282.151 188.5,276.5C 185.242,277.417 181.909,277.751 178.5,277.5C 180.833,276.833 183.167,276.167 185.5,275.5C 189.966,273.692 192.633,270.359 193.5,265.5C 193.229,263.62 193.896,262.287 195.5,261.5 Z"/></g>
<g><path style="opacity:1" fill="#bcb0b0" d="M 174.5,272.5 C 169.821,272.334 165.155,272.501 160.5,273C 158.269,273.622 156.435,274.789 155,276.5C 154.329,275.748 153.496,275.414 152.5,275.5C 154.493,273.837 156.826,272.67 159.5,272C 164.684,271.184 169.684,271.35 174.5,272.5 Z"/></g>
<g><path style="opacity:1" fill="#fcf5e9" d="M 174.5,272.5 C 175.5,273.167 176.5,273.833 177.5,274.5C 177.5,274.833 177.5,275.167 177.5,275.5C 177.5,300.833 177.5,326.167 177.5,351.5C 176.833,351.5 176.167,351.5 175.5,351.5C 174.426,349.716 172.76,348.549 170.5,348C 165.511,347.501 160.511,347.334 155.5,347.5C 151.099,348.13 147.432,346.797 144.5,343.5C 137.556,331.947 131.39,319.947 126,307.5C 125.107,295.893 130.274,288.56 141.5,285.5C 144.537,281.463 148.203,278.129 152.5,275.5C 153.496,275.414 154.329,275.748 155,276.5C 156.435,274.789 158.269,273.622 160.5,273C 165.155,272.501 169.821,272.334 174.5,272.5 Z"/></g>
<g><path style="opacity:1" fill="#e0d4b6" d="M 324.5,272.5 C 330.863,272.407 337.196,272.74 343.5,273.5C 348.693,276.017 353.026,279.683 356.5,284.5C 363.604,285.084 370.604,286.251 377.5,288C 381.797,289.305 385.131,291.805 387.5,295.5C 377.345,293.38 368.845,296.047 362,303.5C 357,314.833 352,326.167 347,337.5C 346.333,341.167 346.333,344.833 347,348.5C 348.481,349.471 349.315,350.804 349.5,352.5C 344.665,349.721 339.498,348.055 334,347.5C 329.432,347.184 325.265,348.184 321.5,350.5C 321.5,325.833 321.5,301.167 321.5,276.5C 321.5,275.833 321.5,275.167 321.5,274.5C 322.222,273.449 323.222,272.782 324.5,272.5 Z"/></g>
<g><path style="opacity:1" fill="#e01f3d" d="M 302.5,263.5 C 303.844,266.374 305.01,269.374 306,272.5C 308.018,273.223 309.852,274.223 311.5,275.5C 290.4,303.52 262.4,314.02 227.5,307C 220.013,309.716 212.346,312.05 204.5,314C 195.741,318.413 187.074,322.913 178.5,327.5C 178.5,310.833 178.5,294.167 178.5,277.5C 181.909,277.751 185.242,277.417 188.5,276.5C 192.652,282.151 197.318,287.317 202.5,292C 208.587,296.426 214.92,300.426 221.5,304C 225.567,305.626 229.567,305.626 233.5,304C 237.914,298.63 240.914,292.463 242.5,285.5C 248.842,285.666 255.175,285.5 261.5,285C 264.104,284.61 266.438,283.776 268.5,282.5C 278.852,279.826 287.852,274.826 295.5,267.5C 297.67,265.914 300.004,264.58 302.5,263.5 Z"/></g>
<g><path style="opacity:1" fill="#442f35" d="M 124.5,286.5 C 118.553,288.488 113.553,291.988 109.5,297C 97.5508,295.397 87.2174,298.563 78.5,306.5C 78.4802,304.857 79.1468,303.524 80.5,302.5C 80.2907,301.914 79.9574,301.414 79.5,301C 83.8288,297.5 88.8288,295.666 94.5,295.5C 99.1292,296.177 103.796,296.011 108.5,295C 109.406,293.301 109.739,291.467 109.5,289.5C 114.42,288.213 119.42,287.213 124.5,286.5 Z"/></g>
<g><path style="opacity:1" fill="#fcf5e9" d="M 387.5,295.5 C 388.289,295.783 388.956,296.283 389.5,297C 404.929,295.298 416.929,300.798 425.5,313.5C 430.403,315.533 434.903,318.2 439,321.5C 443.137,326.371 444.971,332.037 444.5,338.5C 434.316,343.089 423.983,347.422 413.5,351.5C 411.033,351.755 409.033,352.755 407.5,354.5C 400.991,356.598 394.658,358.932 388.5,361.5C 384.873,362.321 381.54,363.654 378.5,365.5C 370.871,367.988 363.538,370.988 356.5,374.5C 356.167,374.5 355.833,374.5 355.5,374.5C 357.069,365.99 355.069,358.656 349.5,352.5C 349.315,350.804 348.481,349.471 347,348.5C 346.333,344.833 346.333,341.167 347,337.5C 352,326.167 357,314.833 362,303.5C 368.845,296.047 377.345,293.38 387.5,295.5 Z"/></g>
<g><path style="opacity:1" fill="#e0d4b7" d="M 141.5,285.5 C 130.274,288.56 125.107,295.893 126,307.5C 131.39,319.947 137.556,331.947 144.5,343.5C 147.432,346.797 151.099,348.13 155.5,347.5C 155.5,347.833 155.5,348.167 155.5,348.5C 154.167,349.5 152.833,350.5 151.5,351.5C 149.959,352.667 148.625,354 147.5,355.5C 146.504,355.414 145.671,355.748 145,356.5C 142.381,362.054 141.881,367.721 143.5,373.5C 143.5,373.833 143.5,374.167 143.5,374.5C 135.455,371.487 127.455,368.487 119.5,365.5C 116.397,363.616 113.063,362.282 109.5,361.5C 106.574,358.542 102.907,356.875 98.5,356.5C 95.7282,356.241 93.3949,355.241 91.5,353.5C 85.0742,349.599 78.0742,346.932 70.5,345.5C 64.9934,344.085 59.6601,342.085 54.5,339.5C 53.9886,325.863 60.322,317.197 73.5,313.5C 74.9308,310.961 76.5975,308.628 78.5,306.5C 87.2174,298.563 97.5508,295.397 109.5,297C 113.553,291.988 118.553,288.488 124.5,286.5C 130.138,285.78 135.804,285.447 141.5,285.5 Z"/></g>
<g><path style="opacity:1" fill="#d64e62" d="M 177.5,275.5 C 180.167,275.5 182.833,275.5 185.5,275.5C 183.167,276.167 180.833,276.833 178.5,277.5C 178.5,294.167 178.5,310.833 178.5,327.5C 178.5,335.5 178.5,343.5 178.5,351.5C 178.167,351.5 177.833,351.5 177.5,351.5C 177.5,326.167 177.5,300.833 177.5,275.5 Z"/></g>
<g><path style="opacity:1" fill="#e45d66" d="M 315.5,275.5 C 317.565,275.517 319.565,275.85 321.5,276.5C 321.5,301.167 321.5,325.833 321.5,350.5C 321.5,350.833 321.5,351.167 321.5,351.5C 321.167,351.5 320.833,351.5 320.5,351.5C 319.246,329.564 319.246,307.564 320.5,285.5C 320.167,282.833 319.833,280.167 319.5,277.5C 317.974,277.006 316.641,276.339 315.5,275.5 Z"/></g>
<g><path style="opacity:1" fill="#732133" d="M 53.5,339.5 C 53.3465,341.97 52.3465,343.97 50.5,345.5C 50.6535,343.03 51.6535,341.03 53.5,339.5 Z"/></g>
<g><path style="opacity:1" fill="#e01e3e" d="M 53.5,339.5 C 53.8333,339.5 54.1667,339.5 54.5,339.5C 59.6601,342.085 64.9934,344.085 70.5,345.5C 77.2978,348.62 84.2978,351.286 91.5,353.5C 93.3949,355.241 95.7282,356.241 98.5,356.5C 101.836,358.731 105.503,360.397 109.5,361.5C 113.063,362.282 116.397,363.616 119.5,365.5C 121.739,366.479 123.406,368.146 124.5,370.5C 127.748,371.645 131.081,372.479 134.5,373C 119.632,396.278 111.132,421.778 109,449.5C 108.583,450.756 107.75,451.423 106.5,451.5C 79.5474,431.88 57.8807,407.547 41.5,378.5C 41.56,370.929 42.8933,363.595 45.5,356.5C 46.9041,352.693 48.5708,349.027 50.5,345.5C 52.3465,343.97 53.3465,341.97 53.5,339.5 Z"/></g>
<g><path style="opacity:1" fill="#f6d975" d="M 155.5,348.5 C 155.5,348.167 155.5,347.833 155.5,347.5C 160.511,347.334 165.511,347.501 170.5,348C 172.76,348.549 174.426,349.716 175.5,351.5C 169.133,348.878 162.466,347.878 155.5,348.5 Z"/></g>
<g><path style="opacity:1" fill="#f5b4a7" d="M 70.5,345.5 C 78.0742,346.932 85.0742,349.599 91.5,353.5C 84.2978,351.286 77.2978,348.62 70.5,345.5 Z"/></g>
<g><path style="opacity:1" fill="#f13f55" d="M 311.5,275.5 C 312.5,275.5 313.5,275.5 314.5,275.5C 314.833,275.5 315.167,275.5 315.5,275.5C 316.641,276.339 317.974,277.006 319.5,277.5C 319.833,280.167 320.167,282.833 320.5,285.5C 319.246,307.564 319.246,329.564 320.5,351.5C 318.157,355.506 315.824,359.506 313.5,363.5C 312.359,366.64 312.192,369.973 313,373.5C 313.2,375.32 314.034,376.653 315.5,377.5C 315.5,378.167 315.5,378.833 315.5,379.5C 315.771,381.312 316.438,382.978 317.5,384.5C 320.427,387.254 323.76,389.421 327.5,391C 332.167,391.667 336.833,391.667 341.5,391C 343.233,389.811 344.9,388.644 346.5,387.5C 348.903,387.607 350.736,386.607 352,384.5C 354.33,381.509 355.83,378.176 356.5,374.5C 363.538,370.988 370.871,367.988 378.5,365.5C 382.653,365.765 385.987,364.431 388.5,361.5C 394.658,358.932 400.991,356.598 407.5,354.5C 409.967,354.245 411.967,353.245 413.5,351.5C 423.983,347.422 434.316,343.089 444.5,338.5C 445.11,339.391 445.443,340.391 445.5,341.5C 446.23,345.997 447.396,350.33 449,354.5C 449.333,354.167 449.667,353.833 450,353.5C 450.898,356.069 452.065,358.402 453.5,360.5C 454.408,366.945 455.408,373.279 456.5,379.5C 419.859,441.249 366.192,479.749 295.5,495C 285.056,496.761 274.723,498.261 264.5,499.5C 254.5,499.5 244.5,499.5 234.5,499.5C 199.658,496.835 166.658,487.335 135.5,471C 125.11,465.42 115.444,458.92 106.5,451.5C 107.75,451.423 108.583,450.756 109,449.5C 111.132,421.778 119.632,396.278 134.5,373C 131.081,372.479 127.748,371.645 124.5,370.5C 123.406,368.146 121.739,366.479 119.5,365.5C 127.455,368.487 135.455,371.487 143.5,374.5C 145.467,378.804 148.133,382.471 151.5,385.5C 154.507,389.331 158.507,390.998 163.5,390.5C 168.379,390.23 173.046,389.063 177.5,387C 178.71,385.961 179.71,384.794 180.5,383.5C 183.705,381.091 185.372,377.758 185.5,373.5C 185.5,373.167 185.5,372.833 185.5,372.5C 186.96,367.85 186.627,363.183 184.5,358.5C 185.331,356.527 185.498,354.527 185,352.5C 184.311,353.357 183.478,354.023 182.5,354.5C 181.378,353.37 180.044,352.703 178.5,352.5C 178.5,352.167 178.5,351.833 178.5,351.5C 178.5,343.5 178.5,335.5 178.5,327.5C 187.074,322.913 195.741,318.413 204.5,314C 212.346,312.05 220.013,309.716 227.5,307C 262.4,314.02 290.4,303.52 311.5,275.5 Z"/></g>
<g><path style="opacity:1" fill="#fbca3a" d="M 349.5,352.5 C 355.069,358.656 357.069,365.99 355.5,374.5C 353.598,379.068 350.598,382.735 346.5,385.5C 345.127,385.657 343.793,385.49 342.5,385C 340.746,383.064 339.079,381.23 337.5,379.5C 338.703,377.366 340.537,376.032 343,375.5C 343.83,373.172 344.663,370.838 345.5,368.5C 343.039,360.369 337.705,357.369 329.5,359.5C 327.983,356.413 327.316,353.079 327.5,349.5C 325.315,349.704 323.315,350.37 321.5,351.5C 321.5,351.167 321.5,350.833 321.5,350.5C 325.265,348.184 329.432,347.184 334,347.5C 339.498,348.055 344.665,349.721 349.5,352.5 Z"/></g>
<g><path style="opacity:1" fill="#ea7e85" d="M 413.5,351.5 C 411.967,353.245 409.967,354.245 407.5,354.5C 409.033,352.755 411.033,351.755 413.5,351.5 Z"/></g>
<g><path style="opacity:1" fill="#d7455a" d="M 445.5,341.5 C 449.504,347.185 452.17,353.518 453.5,360.5C 452.065,358.402 450.898,356.069 450,353.5C 449.667,353.833 449.333,354.167 449,354.5C 447.396,350.33 446.23,345.997 445.5,341.5 Z"/></g>
<g><path style="opacity:1" fill="#f2a89e" d="M 98.5,356.5 C 102.907,356.875 106.574,358.542 109.5,361.5C 105.503,360.397 101.836,358.731 98.5,356.5 Z"/></g>
<g><path style="opacity:1" fill="#ec5747" d="M 178.5,352.5 C 180.044,352.703 181.378,353.37 182.5,354.5C 183.478,354.023 184.311,353.357 185,352.5C 185.498,354.527 185.331,356.527 184.5,358.5C 186.627,363.183 186.96,367.85 185.5,372.5C 185.823,368.774 185.489,365.107 184.5,361.5C 184.025,358.845 182.691,356.845 180.5,355.5C 179.833,354.5 179.167,353.5 178.5,352.5 Z"/></g>
<g><path style="opacity:1" fill="#6b1f30" d="M 45.5,356.5 C 42.8933,363.595 41.56,370.929 41.5,378.5C 40.3263,377.486 39.6596,376.153 39.5,374.5C 40.5201,368.106 42.5201,362.106 45.5,356.5 Z"/></g>
<g><path style="opacity:1" fill="#fede81" d="M 337.5,379.5 C 327.784,379.95 323.284,375.283 324,365.5C 325.331,363.004 327.164,361.004 329.5,359.5C 337.705,357.369 343.039,360.369 345.5,368.5C 344.663,370.838 343.83,373.172 343,375.5C 340.537,376.032 338.703,377.366 337.5,379.5 Z"/></g>
<g><path style="opacity:1" fill="#fcaf21" d="M 159.5,359.5 C 158.167,359.5 157.5,360.167 157.5,361.5C 156.206,362.29 155.039,363.29 154,364.5C 153.333,367.5 153.333,370.5 154,373.5C 157.72,379.007 162.887,381.007 169.5,379.5C 170.01,383.68 172.344,385.68 176.5,385.5C 168.303,389.403 159.97,389.403 151.5,385.5C 148.133,382.471 145.467,378.804 143.5,374.5C 143.5,374.167 143.5,373.833 143.5,373.5C 142.536,366.838 143.87,360.838 147.5,355.5C 148.625,354 149.959,352.667 151.5,351.5C 153.936,351.683 156.103,351.016 158,349.5C 158.21,350.803 158.043,352.136 157.5,353.5C 158.651,355.325 159.318,357.325 159.5,359.5 Z"/></g>
<g><path style="opacity:1" fill="#fcca35" d="M 155.5,348.5 C 162.466,347.878 169.133,348.878 175.5,351.5C 176.167,351.5 176.833,351.5 177.5,351.5C 177.833,351.5 178.167,351.5 178.5,351.5C 178.5,351.833 178.5,352.167 178.5,352.5C 179.167,353.5 179.833,354.5 180.5,355.5C 183.048,361.165 184.382,367.165 184.5,373.5C 183.613,377.04 182.279,380.373 180.5,383.5C 178.938,383.733 177.605,384.4 176.5,385.5C 172.344,385.68 170.01,383.68 169.5,379.5C 175.092,376.206 176.925,371.206 175,364.5C 171.222,358.628 166.056,356.961 159.5,359.5C 159.318,357.325 158.651,355.325 157.5,353.5C 158.043,352.136 158.21,350.803 158,349.5C 156.103,351.016 153.936,351.683 151.5,351.5C 152.833,350.5 154.167,349.5 155.5,348.5 Z"/></g>
<g><path style="opacity:1" fill="#e3626d" d="M 388.5,361.5 C 385.987,364.431 382.653,365.765 378.5,365.5C 381.54,363.654 384.873,362.321 388.5,361.5 Z"/></g>
<g><path style="opacity:1" fill="#f87443" d="M 313.5,363.5 C 313.221,368.327 313.887,372.993 315.5,377.5C 314.034,376.653 313.2,375.32 313,373.5C 312.192,369.973 312.359,366.64 313.5,363.5 Z"/></g>
<g><path style="opacity:1" fill="#feaf41" d="M 180.5,355.5 C 182.691,356.845 184.025,358.845 184.5,361.5C 185.489,365.107 185.823,368.774 185.5,372.5C 185.5,372.833 185.5,373.167 185.5,373.5C 185.167,373.5 184.833,373.5 184.5,373.5C 184.382,367.165 183.048,361.165 180.5,355.5 Z"/></g>
<g><path style="opacity:1" fill="#ecc881" d="M 147.5,355.5 C 143.87,360.838 142.536,366.838 143.5,373.5C 141.881,367.721 142.381,362.054 145,356.5C 145.671,355.748 146.504,355.414 147.5,355.5 Z"/></g>
<g><path style="opacity:0.004" fill="#fefffe" d="M 13.5,371.5 C 14.8333,372.167 14.8333,372.167 13.5,371.5 Z"/></g>
<g><path style="opacity:1" fill="#ffcd91" d="M 233.5,372.5 C 233.5,372.167 233.5,371.833 233.5,371.5C 248.833,371.5 264.167,371.5 279.5,371.5C 281.179,371.892 282.846,372.392 284.5,373C 288.712,377.707 292.712,382.54 296.5,387.5C 292.718,384.548 289.385,381.048 286.5,377C 284.772,375.274 282.772,373.941 280.5,373C 264.837,372.5 249.17,372.333 233.5,372.5 Z"/></g>
<g><path style="opacity:1" fill="#fedc7a" d="M 169.5,379.5 C 162.887,381.007 157.72,379.007 154,373.5C 153.333,370.5 153.333,367.5 154,364.5C 155.039,363.29 156.206,362.29 157.5,361.5C 157.5,360.167 158.167,359.5 159.5,359.5C 166.056,356.961 171.222,358.628 175,364.5C 176.925,371.206 175.092,376.206 169.5,379.5 Z"/></g>
<g><path style="opacity:1" fill="#fdde8a" d="M 157.5,361.5 C 161.833,361.5 166.167,361.5 170.5,361.5C 169.982,365.317 171.315,368.317 174.5,370.5C 173.311,371.429 171.978,371.762 170.5,371.5C 170.756,373.912 169.756,375.579 167.5,376.5C 167.891,375.282 167.224,374.448 165.5,374C 163.5,373.667 161.5,373.333 159.5,373C 161.731,371.853 164.065,370.853 166.5,370C 167.337,368.989 167.67,367.822 167.5,366.5C 165.833,366.5 164.167,366.5 162.5,366.5C 162.5,367.5 162.5,368.5 162.5,369.5C 160.833,369.5 159.167,369.5 157.5,369.5C 157.762,370.978 157.429,372.311 156.5,373.5C 154.976,372.473 154.309,370.973 154.5,369C 154.821,366.195 155.821,363.695 157.5,361.5 Z"/></g>
<g><path style="opacity:1" fill="#c84357" d="M 453.5,360.5 C 455.909,365.491 457.576,370.825 458.5,376.5C 458.573,378.027 457.906,379.027 456.5,379.5C 455.408,373.279 454.408,366.945 453.5,360.5 Z"/></g>
<g><path style="opacity:1" fill="#fcae21" d="M 329.5,359.5 C 327.164,361.004 325.331,363.004 324,365.5C 323.284,375.283 327.784,379.95 337.5,379.5C 339.079,381.23 340.746,383.064 342.5,385C 343.793,385.49 345.127,385.657 346.5,385.5C 346.5,386.167 346.5,386.833 346.5,387.5C 339.645,389.391 332.645,389.891 325.5,389C 321.848,386.037 318.515,382.87 315.5,379.5C 315.5,378.833 315.5,378.167 315.5,377.5C 313.887,372.993 313.221,368.327 313.5,363.5C 315.824,359.506 318.157,355.506 320.5,351.5C 320.833,351.5 321.167,351.5 321.5,351.5C 323.315,350.37 325.315,349.704 327.5,349.5C 327.316,353.079 327.983,356.413 329.5,359.5 Z"/></g>
<g><path style="opacity:1" fill="#fede86" d="M 233.5,372.5 C 249.17,372.333 264.837,372.5 280.5,373C 282.772,373.941 284.772,375.274 286.5,377C 289.385,381.048 292.718,384.548 296.5,387.5C 299.797,390.736 302.63,394.403 305,398.5C 305.667,400.833 305.667,403.167 305,405.5C 297.392,416.403 289.559,427.07 281.5,437.5C 280.5,438.167 279.5,438.833 278.5,439.5C 272.799,437.905 270.633,434.239 272,428.5C 278.285,421.175 284.619,413.841 291,406.5C 292.854,403.348 292.521,400.348 290,397.5C 286.5,393.167 283,388.833 279.5,384.5C 265.182,383.501 250.849,383.167 236.5,383.5C 233.807,380.419 232.807,376.753 233.5,372.5 Z"/></g>
<g><path style="opacity:1" fill="#f27243" d="M 184.5,373.5 C 184.833,373.5 185.167,373.5 185.5,373.5C 185.372,377.758 183.705,381.091 180.5,383.5C 182.279,380.373 183.613,377.04 184.5,373.5 Z"/></g>
<g><path style="opacity:1" fill="#fdc935" d="M 233.5,371.5 C 233.5,371.833 233.5,372.167 233.5,372.5C 232.807,376.753 233.807,380.419 236.5,383.5C 250.849,383.167 265.182,383.501 279.5,384.5C 283,388.833 286.5,393.167 290,397.5C 292.521,400.348 292.854,403.348 291,406.5C 284.619,413.841 278.285,421.175 272,428.5C 270.633,434.239 272.799,437.905 278.5,439.5C 273.755,445.239 269.421,451.239 265.5,457.5C 262.4,461.356 259.067,465.023 255.5,468.5C 252.103,469.192 248.77,469.192 245.5,468.5C 242.465,466.121 240.131,463.121 238.5,459.5C 237.675,458.614 236.675,458.281 235.5,458.5C 234.167,457.5 232.833,456.5 231.5,455.5C 227.013,449.435 222.347,443.435 217.5,437.5C 216.581,434.911 214.914,432.911 212.5,431.5C 208.894,425.562 204.561,420.229 199.5,415.5C 197.887,412.868 196.22,410.202 194.5,407.5C 192.897,402.855 193.397,398.522 196,394.5C 201.814,388.198 207.147,381.532 212,374.5C 213.255,373.789 214.421,372.956 215.5,372C 221.491,371.501 227.491,371.334 233.5,371.5 Z"/></g>
<g><path style="opacity:1" fill="#ea5644" d="M 355.5,374.5 C 355.833,374.5 356.167,374.5 356.5,374.5C 355.83,378.176 354.33,381.509 352,384.5C 350.736,386.607 348.903,387.607 346.5,387.5C 346.5,386.833 346.5,386.167 346.5,385.5C 350.598,382.735 353.598,379.068 355.5,374.5 Z"/></g>
<g><path style="opacity:1" fill="#fe9c37" d="M 180.5,383.5 C 179.71,384.794 178.71,385.961 177.5,387C 173.046,389.063 168.379,390.23 163.5,390.5C 158.507,390.998 154.507,389.331 151.5,385.5C 159.97,389.403 168.303,389.403 176.5,385.5C 177.605,384.4 178.938,383.733 180.5,383.5 Z"/></g>
<g><path style="opacity:1" fill="#ed5b3f" d="M 315.5,379.5 C 318.515,382.87 321.848,386.037 325.5,389C 332.645,389.891 339.645,389.391 346.5,387.5C 344.9,388.644 343.233,389.811 341.5,391C 336.833,391.667 332.167,391.667 327.5,391C 323.76,389.421 320.427,387.254 317.5,384.5C 316.438,382.978 315.771,381.312 315.5,379.5 Z"/></g>
<g><path style="opacity:1" fill="#eb504d" d="M 279.5,371.5 C 264.167,371.5 248.833,371.5 233.5,371.5C 227.491,371.334 221.491,371.501 215.5,372C 214.421,372.956 213.255,373.789 212,374.5C 207.147,381.532 201.814,388.198 196,394.5C 193.397,398.522 192.897,402.855 194.5,407.5C 196.22,410.202 197.887,412.868 199.5,415.5C 198.542,415.047 197.708,414.381 197,413.5C 194.881,416.477 193.714,416.144 193.5,412.5C 191.686,405.051 192.352,397.884 195.5,391C 195.167,390.667 194.833,390.333 194.5,390C 196.059,389.02 197.726,388.187 199.5,387.5C 202.08,385.085 204.08,382.251 205.5,379C 205.167,378.667 204.833,378.333 204.5,378C 205.793,377.51 207.127,377.343 208.5,377.5C 208.579,376.07 208.246,374.736 207.5,373.5C 209.511,372.907 211.844,372.074 214.5,371C 236.337,370.171 258.004,370.337 279.5,371.5 Z"/></g>
<g><path style="opacity:0.004" fill="#fefffe" d="M 482.5,431.5 C 483.833,432.167 483.833,432.167 482.5,431.5 Z"/></g>
<g><path style="opacity:1" fill="#fdaf1e" d="M 236.5,383.5 C 235.444,389.341 237.111,394.007 241.5,397.5C 236.456,397.173 231.456,397.506 226.5,398.5C 224.988,399.249 223.988,400.416 223.5,402C 229.618,411.114 236.452,419.614 244,427.5C 244.6,431.04 246.434,433.707 249.5,435.5C 253.465,431.216 256.798,426.549 259.5,421.5C 259.471,419.971 258.804,418.804 257.5,418C 253.986,417.169 250.819,415.669 248,413.5C 245.548,408.35 243.715,403.016 242.5,397.5C 252.19,397.168 261.856,397.502 271.5,398.5C 273.744,399.003 275.078,400.337 275.5,402.5C 272.303,408.374 268.303,413.707 263.5,418.5C 262.353,420.765 262.186,423.098 263,425.5C 265.037,427.436 267.203,429.102 269.5,430.5C 268.902,431.795 268.402,433.128 268,434.5C 261.75,442.017 255.75,449.683 250,457.5C 235.22,439.735 220.886,421.735 207,403.5C 206.333,402.5 206.333,401.5 207,400.5C 212.316,395.722 216.816,390.222 220.5,384C 225.823,383.501 231.156,383.334 236.5,383.5 Z"/></g>
<g><path style="opacity:1" fill="#fc920a" d="M 241.5,397.5 C 241.833,397.5 242.167,397.5 242.5,397.5C 243.715,403.016 245.548,408.35 248,413.5C 250.819,415.669 253.986,417.169 257.5,418C 258.804,418.804 259.471,419.971 259.5,421.5C 256.798,426.549 253.465,431.216 249.5,435.5C 246.434,433.707 244.6,431.04 244,427.5C 236.452,419.614 229.618,411.114 223.5,402C 223.988,400.416 224.988,399.249 226.5,398.5C 231.456,397.506 236.456,397.173 241.5,397.5 Z"/></g>
<g><path style="opacity:1" fill="#ec733d" d="M 212.5,431.5 C 214.914,432.911 216.581,434.911 217.5,437.5C 215.086,436.089 213.419,434.089 212.5,431.5 Z"/></g>
<g><path style="opacity:0.004" fill="#fefffe" d="M 54.5,444.5 C 55.8333,445.167 55.8333,445.167 54.5,444.5 Z"/></g>
<g><path style="opacity:1" fill="#e95a45" d="M 217.5,437.5 C 222.347,443.435 227.013,449.435 231.5,455.5C 229.79,453.8 227.79,452.467 225.5,451.5C 224.376,449.631 223.543,447.631 223,445.5C 219.445,444.068 217.612,441.401 217.5,437.5 Z"/></g>
<g><path style="opacity:1" fill="#ef5449" d="M 281.5,437.5 C 280.189,440.416 280.855,442.916 283.5,445C 281.432,445.687 279.432,445.52 277.5,444.5C 275.648,446.857 274.481,449.523 274,452.5C 271.294,454.45 268.461,456.117 265.5,457.5C 269.421,451.239 273.755,445.239 278.5,439.5C 279.5,438.833 280.5,438.167 281.5,437.5 Z"/></g>
<g><path style="opacity:0.004" fill="#fefffe" d="M 25.5,455.5 C 26.8333,456.167 26.8333,456.167 25.5,455.5 Z"/></g>
<g><path style="opacity:0.004" fill="#fefffe" d="M 56.5,456.5 C 57.8333,457.167 57.8333,457.167 56.5,456.5 Z"/></g>
<g><path style="opacity:1" fill="#ffbd47" d="M 235.5,458.5 C 236.675,458.281 237.675,458.614 238.5,459.5C 240.131,463.121 242.465,466.121 245.5,468.5C 248.77,469.192 252.103,469.192 255.5,468.5C 255.5,468.833 255.5,469.167 255.5,469.5C 251.888,470.511 248.221,470.678 244.5,470C 240.879,466.559 237.879,462.726 235.5,458.5 Z"/></g>
<g><path style="opacity:1" fill="#e65342" d="M 265.5,457.5 C 264.367,461.481 262.533,465.147 260,468.5C 258.644,469.38 257.144,469.714 255.5,469.5C 255.5,469.167 255.5,468.833 255.5,468.5C 259.067,465.023 262.4,461.356 265.5,457.5 Z"/></g>
<g><path style="opacity:1" fill="#ea4c4b" d="M 231.5,455.5 C 232.833,456.5 234.167,457.5 235.5,458.5C 237.879,462.726 240.879,466.559 244.5,470C 248.221,470.678 251.888,470.511 255.5,469.5C 255.5,470.5 255.5,471.5 255.5,472.5C 251.466,472.505 247.466,472.838 243.5,473.5C 243.5,472.5 243.5,471.5 243.5,470.5C 240.482,470.296 237.482,469.963 234.5,469.5C 234.665,466.15 234.498,462.817 234,459.5C 232.519,458.529 231.685,457.196 231.5,455.5 Z"/></g>
<g><path style="opacity:0.004" fill="#fefffe" d="M 364.5,477.5 C 365.833,478.167 365.833,478.167 364.5,477.5 Z"/></g>
<g><path style="opacity:0.004" fill="#fefffe" d="M 359.5,486.5 C 360.833,487.167 360.833,487.167 359.5,486.5 Z"/></g>
</svg>
